<mxfile host="app.diagrams.net" modified="2024-05-28T20:28:19.080Z" agent="Mozilla/5.0 (Windows NT 10.0; Win64; x64) AppleWebKit/537.36 (KHTML, like Gecko) Chrome/125.0.0.0 Safari/537.36" version="24.4.9" etag="MQ6PXjYcEc_W1nC-o0zy" type="github">
  <diagram name="Page-1" id="tHs2OID-AjQ1D9ACt-ad">
    <mxGraphModel>
      <root>
        <mxCell id="0" />
        <mxCell id="1" parent="0" />
      </root>
    </mxGraphModel>
  </diagram>
</mxfile>
